<svg width="118" height="118" viewBox="0 0 118 118" fill="none" xmlns="http://www.w3.org/2000/svg">
<path d="M61.4584 27.0417V9.83333M61.4584 59V44.25" stroke="white" stroke-width="8.5" stroke-linecap="round" stroke-linejoin="round"/>
<path d="M61.4584 108.167C90.9584 108.167 98.3334 85.9925 98.3334 59C98.3334 32.0074 90.9584 9.83333 61.4584 9.83333C31.958 9.83333 24.5834 32.0073 24.5834 59C24.5834 85.9925 31.958 108.167 61.4584 108.167Z" stroke="white" stroke-width="8.5"/>
<path d="M68.8334 34.4167C68.8334 32.1258 68.8334 30.9804 68.4592 30.0768C67.9602 28.8721 67.0029 27.9149 65.7983 27.4159C64.8946 27.0417 63.749 27.0417 61.4584 27.0417C59.1677 27.0417 58.0221 27.0417 57.1184 27.4159C55.9138 27.9149 54.9566 28.8721 54.4575 30.0768C54.0834 30.9804 54.0834 32.1258 54.0834 34.4167V36.875C54.0834 39.1659 54.0834 40.3113 54.4575 41.2148C54.9566 42.4196 55.9138 43.3767 57.1184 43.8757C58.0221 44.25 59.1677 44.25 61.4584 44.25C63.749 44.25 64.8946 44.25 65.7983 43.8757C67.0029 43.3767 67.9602 42.4196 68.4592 41.2148C68.8334 40.3113 68.8334 39.1659 68.8334 36.875V34.4167Z" stroke="white" stroke-width="8.5"/>
<path d="M27.0416 59H95.875" stroke="white" stroke-width="8.5" stroke-linecap="round" stroke-linejoin="round"/>
</svg>
